<svg width="100" height="100" viewBox="0 0 100 100" fill="none" xmlns="http://www.w3.org/2000/svg">
<path d="M37.4252 61.0303L37.4251 61.03C34.7621 56.7163 32.4558 52.4715 30.8376 48.6496C29.1653 44.6857 28.5195 41.8232 28.5195 40.0778C28.5195 28.176 38.176 18.5195 50.0778 18.5195C61.9797 18.5195 71.6362 28.176 71.6362 40.0778C71.6362 41.8232 70.9904 44.6855 69.3183 48.6492C67.7001 52.4712 65.3937 56.7162 62.7306 61.03L62.7296 61.0316C58.6022 67.7459 53.8449 74.2521 50.0793 79.1283C46.3257 74.2512 41.5673 67.7449 37.4252 61.0303ZM54.5699 88.8289L54.5718 88.8266C58.6004 83.785 65.2203 75.1405 70.838 66.0278C73.6467 61.4717 76.2168 56.7794 78.0875 52.3481C79.9513 47.9333 81.1557 43.6976 81.1557 40.0778C81.1557 22.9201 67.2356 9 50.0778 9C32.9201 9 19 22.9201 19 40.0778C19 43.6976 20.2044 47.9333 22.0682 52.3481C23.9389 56.7794 26.509 61.4717 29.3176 66.0278C34.9353 75.1405 41.5553 83.785 45.5839 88.8266L45.5857 88.8289C47.9129 91.7237 52.2428 91.7237 54.5699 88.8289ZM52.9154 37.2402C53.668 37.9928 54.0908 39.0135 54.0908 40.0778C54.0908 41.1421 53.668 42.1629 52.9154 42.9154C52.1629 43.668 51.1421 44.0908 50.0778 44.0908C49.0135 44.0908 47.9928 43.668 47.2402 42.9154C46.4877 42.1629 46.0649 41.1421 46.0649 40.0778C46.0649 39.0135 46.4877 37.9928 47.2402 37.2402C47.9928 36.4877 49.0135 36.0649 50.0778 36.0649C51.1421 36.0649 52.1629 36.4877 52.9154 37.2402ZM40.509 30.509C37.9711 33.0468 36.5454 36.4888 36.5454 40.0778C36.5454 43.6669 37.9711 47.1089 40.509 49.6467C43.0468 52.1845 46.4888 53.6103 50.0778 53.6103C53.6669 53.6103 57.1089 52.1845 59.6467 49.6467C62.1845 47.1089 63.6103 43.6669 63.6103 40.0778C63.6103 36.4888 62.1845 33.0468 59.6467 30.509C57.1089 27.9711 53.6669 26.5454 50.0778 26.5454C46.4888 26.5454 43.0468 27.9711 40.509 30.509Z" fill="url(#paint0_linear_466_39)" stroke="white" stroke-width="2"/>
<defs>
<linearGradient id="paint0_linear_466_39" x1="50.0778" y1="10" x2="50.0778" y2="90" gradientUnits="userSpaceOnUse">
<stop stop-color="#0AA689"/>
<stop offset="1" stop-color="#177169"/>
</linearGradient>
</defs>
</svg>
