<svg width="90" height="87" viewBox="0 0 90 87" fill="none" xmlns="http://www.w3.org/2000/svg">
<g filter="url(#filter0_d_484_176)">
<circle cx="45" cy="37" r="37" fill="white"/>
</g>
<rect x="15.5" y="6.5" width="59" height="61" rx="29.5" fill="url(#paint0_linear_484_176)"/>
<rect x="15.5" y="6.5" width="59" height="61" rx="29.5" fill="url(#paint1_linear_484_176)"/>
<path d="M50.53 58.7183H40.1068C39.9262 58.7183 39.7475 58.6813 39.5807 58.6096C39.4139 58.5378 39.2624 58.4326 39.1348 58.3001C39.0071 58.1675 38.9059 58.0101 38.8369 57.8369C38.7678 57.6637 38.7323 57.478 38.7324 57.2905V49.067L31.8734 53.1776C31.5572 53.3647 31.1833 53.4167 30.8309 53.3225C30.4787 53.2232 30.1785 52.9835 29.9957 52.6555L24.7836 43.2811C24.6018 42.9531 24.5526 42.5635 24.6471 42.1979C24.7415 41.8324 24.9718 41.5206 25.2874 41.3312L32.1482 37.2183L25.2878 33.1053C24.9723 32.9158 24.7422 32.604 24.6479 32.2384C24.5536 31.8728 24.6029 31.4833 24.785 31.1555L29.9953 21.7811C30.1781 21.4539 30.4779 21.2151 30.8296 21.1165C31.1819 21.0189 31.5571 21.0699 31.8734 21.2585L38.7324 25.3714V17.146C38.7323 16.9585 38.7678 16.7729 38.8369 16.5997C38.9059 16.4264 39.0071 16.269 39.1348 16.1365C39.2624 16.0039 39.4139 15.8987 39.5807 15.827C39.7475 15.7552 39.9262 15.7183 40.1068 15.7183H50.53C50.7105 15.7183 50.8893 15.7552 51.056 15.827C51.2228 15.8987 51.3743 16.0039 51.502 16.1365C51.6296 16.269 51.7308 16.4264 51.7999 16.5997C51.8689 16.7729 51.9044 16.9585 51.9044 17.146V25.3719L58.7643 21.2589C58.9206 21.1651 59.0931 21.1042 59.2721 21.0797C59.4511 21.0551 59.6329 21.0675 59.8073 21.1159C59.9817 21.1644 60.1452 21.2481 60.2884 21.3623C60.4316 21.4764 60.5517 21.6187 60.6419 21.7811L65.8545 31.1555C66.0368 31.4825 66.0865 31.8727 65.9912 32.238C65.8967 32.6035 65.6668 32.9153 65.3517 33.1053L58.4913 37.2183L65.3512 41.3312C65.6666 41.521 65.8966 41.8328 65.9908 42.1985C66.0851 42.5641 66.0359 42.9536 65.854 43.2815L60.6438 52.6526C60.4609 52.9802 60.1605 53.2192 59.8083 53.3171C59.4561 53.4151 59.0808 53.3641 58.7648 53.1752L51.9048 49.0622V57.2901C51.9049 57.4776 51.8694 57.6633 51.8003 57.8366C51.7312 58.0098 51.63 58.1673 51.5023 58.2999C51.3746 58.4325 51.2231 58.5378 51.0562 58.6095C50.8894 58.6813 50.7106 58.7183 50.53 58.7183ZM41.4816 55.8628H49.1556V46.5903C49.1556 46.0806 49.4167 45.6086 49.8426 45.3552C50.0518 45.2307 50.2888 45.1652 50.53 45.1652C50.7712 45.1652 51.0081 45.2307 51.2174 45.3552L58.9489 49.9903L62.7862 43.0879L55.0542 38.4533C54.8453 38.3282 54.6718 38.1482 54.5512 37.9314C54.4306 37.7146 54.3672 37.4686 54.3672 37.2183C54.3672 36.7086 54.6296 36.2371 55.0542 35.9808L62.7848 31.3458L58.948 24.4462L51.2179 29.0813C50.7915 29.3347 50.268 29.3347 49.843 29.0813C49.6341 28.9557 49.4606 28.7752 49.3401 28.5581C49.2195 28.3409 49.156 28.0946 49.1561 27.8439V18.5737H41.4816V27.8439C41.4816 28.0946 41.4181 28.341 41.2975 28.5582C41.1768 28.7754 41.0032 28.9558 40.7942 29.0813C40.3687 29.3347 39.8452 29.3347 39.4193 29.0813L31.6887 24.4462L27.8529 31.3458L35.5844 35.9808C35.7933 36.1066 35.9667 36.287 36.0873 36.5042C36.208 36.7213 36.2716 36.9676 36.2718 37.2183C36.2719 37.4687 36.2084 37.7147 36.0877 37.9315C35.967 38.1484 35.7934 38.3283 35.5844 38.4533L27.852 43.0908L31.6892 49.9932L39.4193 45.3581C39.6286 45.2336 39.8656 45.1681 40.1068 45.1681C40.3479 45.1681 40.5849 45.2336 40.7942 45.3581C41.0033 45.4828 41.1769 45.6627 41.2976 45.8795C41.4183 46.0962 41.4818 46.3423 41.4816 46.5927V55.8628Z" fill="white"/>
<rect x="15.5" y="6.5" width="59" height="61" rx="29.5" stroke="url(#paint2_linear_484_176)" stroke-width="7"/>
<path d="M73 36.5V37.5C73 53.2401 60.2401 66 44.5 66C28.7599 66 16 53.2401 16 37.5V36.5C16 20.7599 28.7599 8 44.5 8C60.2401 8 73 20.7599 73 36.5Z" stroke="white" stroke-width="2"/>
<defs>
<filter id="filter0_d_484_176" x="0" y="-3" width="90" height="90" filterUnits="userSpaceOnUse" color-interpolation-filters="sRGB">
<feFlood flood-opacity="0" result="BackgroundImageFix"/>
<feColorMatrix in="SourceAlpha" type="matrix" values="0 0 0 0 0 0 0 0 0 0 0 0 0 0 0 0 0 0 127 0" result="hardAlpha"/>
<feOffset dy="5"/>
<feGaussianBlur stdDeviation="4"/>
<feComposite in2="hardAlpha" operator="out"/>
<feColorMatrix type="matrix" values="0 0 0 0 0 0 0 0 0 0 0 0 0 0 0 0 0 0 0.15 0"/>
<feBlend mode="normal" in2="BackgroundImageFix" result="effect1_dropShadow_484_176"/>
<feBlend mode="normal" in="SourceGraphic" in2="effect1_dropShadow_484_176" result="shape"/>
</filter>
<linearGradient id="paint0_linear_484_176" x1="17" y1="37" x2="71.5" y2="36.5" gradientUnits="userSpaceOnUse">
<stop offset="0.489583" stop-color="#2A3E4F" stop-opacity="0.987176"/>
<stop offset="1" stop-color="#2A3E4F" stop-opacity="0.85"/>
</linearGradient>
<linearGradient id="paint1_linear_484_176" x1="17" y1="37" x2="71.5" y2="36.5" gradientUnits="userSpaceOnUse">
<stop offset="0.489583" stop-color="#2A3E4F" stop-opacity="0.987176"/>
<stop offset="1" stop-color="#2A3E4F" stop-opacity="0.85"/>
</linearGradient>
<linearGradient id="paint2_linear_484_176" x1="45" y1="10" x2="45" y2="64" gradientUnits="userSpaceOnUse">
<stop stop-color="#253746" stop-opacity="0.9872"/>
<stop offset="1" stop-color="#2A3E4F"/>
</linearGradient>
</defs>
</svg>
